# xmcd
#
# Track frame offsets: 
#        150
#        14562
#        26389
#        30643
#        47035
#        73531
#        87519
#        101398
#        118144
#        154256
#        175436
#        202996
#        232351
#
# Disc length: 3847 seconds
#
# Revision: 0
# Processed by: cddbd v1.5.2PL0 Copyright (c) Steve Scherf et al.
# Submitted via: ExactAudioCopy v0.95a5
#
DISCID=b00f050d
DTITLE=Drop The Ball - Uncas, The
DYEAR=2005
DGENRE=Rockabilly
TTITLE0=OH!
TTITLE1=Heaven in a Sunset
TTITLE2=(Warm-up)
TTITLE3=Just Walkin'
TTITLE4=Steve
TTITLE5=Ties That Bind
TTITLE6=Pass The Bottle
TTITLE7=That Time on the Plow
TTITLE8=What's on Yer Mind?
TTITLE9=Betsy Lou
TTITLE10=Hey Mana!
TTITLE11=Rooster Doo
TTITLE12=Go on Home
EXTD=
EXTT0=
EXTT1=
EXTT2=
EXTT3=
EXTT4=
EXTT5=
EXTT6=
EXTT7=
EXTT8=
EXTT9=
EXTT10=
EXTT11=
EXTT12=
PLAYORDER=
